<!DOCTYPE svg PUBLIC "-//W3C//DTD SVG 20010904//EN" "http://www.w3.org/TR/2001/REC-SVG-20010904/DTD/svg10.dtd">
<svg version="1.0" xmlns="http://www.w3.org/2000/svg" width="250px" height="148px" viewBox="0 0 2500 1480" preserveAspectRatio="xMidYMid meet">
<g id="layer101" fill="#030202" stroke="none">
 <path d="M2052 1170 c3 -56 -2 -62 -26 -25 -20 31 -54 33 -65 3 l-8 -22 -5 22 c-8 30 -38 18 -38 -15 0 -33 -20 -25 -39 15 -20 40 -46 44 -37 5 17 -75 33 -123 38 -117 4 3 5 11 3 17 -2 7 -6 26 -10 42 l-6 30 24 -29 c28 -34 47 -28 47 16 l0 31 29 -39 c52 -68 62 -77 74 -65 19 19 26 13 37 -31 32 -126 47 -111 20 20 -11 55 -20 121 -20 146 0 27 -5 46 -11 46 -7 0 -10 -18 -7 -50z m-28 -57 c19 -27 23 -40 15 -50 -15 -17 -28 -7 -45 33 -27 65 -9 75 30 17z"/>
 <path d="M1248 1188 c-7 -17 25 -218 37 -239 8 -12 1 -12 -81 6 -22 5 -25 4 -14 -4 8 -5 32 -13 52 -16 21 -4 46 -14 55 -23 10 -11 18 -13 20 -6 2 7 17 9 44 4 21 -4 42 -3 45 1 3 5 -1 9 -8 9 -22 0 -71 174 -64 227 5 39 4 44 -12 41 -22 -5 -19 -65 8 -164 25 -87 25 -94 2 -94 -15 0 -23 17 -40 94 -12 52 -22 105 -23 118 0 13 -4 32 -8 42 -6 16 -8 17 -13 4z"/>
 <path d="M598 1188 c-1 -2 -4 -113 -7 -248 l-6 -245 -77 -7 c-79 -7 -173 -30 -220 -54 -35 -18 -47 -73 -24 -109 18 -27 109 -77 173 -94 39 -11 42 -14 77 -99 56 -133 82 -176 108 -182 17 -5 493 -5 540 -1 4 1 26 40 48 89 94 201 78 179 147 203 82 27 173 100 173 139 0 35 -10 43 -90 68 -89 28 -162 42 -220 42 l-50 0 -2 248 -3 247 -32 3 c-28 3 -33 0 -33 -17 0 -25 -8 -26 -34 -6 -27 21 -89 19 -108 -2 -36 -42 -53 -115 -52 -228 0 -157 24 -196 122 -205 32 -3 57 -10 60 -17 3 -10 -44 -13 -213 -13 l-216 0 3 23 c2 13 9 21 18 18 8 -2 36 -6 61 -8 43 -5 49 -3 65 23 17 25 19 49 19 189 0 134 -3 165 -17 187 -22 33 -60 43 -97 23 -28 -14 -30 -14 -33 8 -2 18 -10 23 -40 25 -21 2 -39 2 -40 0z m475 -112 c14 -11 17 -31 17 -134 0 -109 -2 -121 -19 -127 -29 -9 -70 12 -82 42 -14 37 -3 181 17 210 16 26 40 29 67 9z m-325 -91 c2 -44 0 -99 -3 -122 -5 -36 -10 -43 -29 -43 -42 0 -49 22 -43 132 5 105 13 121 52 116 18 -3 20 -12 23 -83z"/>
 <path d="M1605 1175 c-9 -20 16 -164 37 -210 22 -48 26 -24 8 40 l-19 65 22 -15 c31 -22 56 -18 68 9 10 20 8 30 -12 58 -30 43 -52 59 -63 48 -14 -14 10 -59 39 -72 29 -13 34 -38 7 -38 -31 0 -70 51 -74 95 -3 33 -5 36 -13 20z m85 -57 c0 -6 -7 -5 -15 2 -8 7 -15 17 -15 22 0 6 7 5 15 -2 8 -7 15 -17 15 -22z"/>
 <path d="M1400 1160 c-7 -12 -10 -31 -7 -41 8 -28 -5 -23 -30 14 -13 17 -23 25 -23 17 0 -18 57 -90 71 -90 5 0 9 21 9 46 0 59 17 54 39 -11 12 -37 21 -50 35 -50 30 0 30 22 2 50 -14 14 -26 35 -26 45 0 36 39 20 73 -30 12 -17 17 -20 17 -8 0 20 -53 78 -73 78 -8 0 -20 -7 -27 -15 -12 -14 -15 -14 -31 1 -16 14 -18 14 -29 -6z"/>
 <path d="M1790 1154 c0 -22 -2 -24 -15 -14 -21 18 -36 3 -33 -35 1 -25 8 -37 28 -46 14 -6 33 -15 42 -20 26 -13 28 -11 19 14 -5 12 -12 46 -16 75 -7 54 -25 72 -25 26z m-2 -56 c9 -15 13 -30 9 -34 -8 -9 -33 22 -41 49 -6 26 13 16 32 -15z"/>
 <path d="M1485 910 l-60 -7 68 -1 c39 -1 67 2 67 8 0 6 -3 9 -7 8 -5 -1 -35 -4 -68 -8z"/>
 </g>
<g id="layer102" fill="#f6f6f6" stroke="none">
 <path d="M698 643 c-24 -4 -28 -9 -28 -39 0 -33 2 -35 28 -30 59 11 221 16 300 8 l82 -8 0 32 c0 24 -5 33 -22 38 -25 6 -316 6 -360 -1z"/>
 <path d="M498 612 c-60 -17 -66 -24 -47 -65 l11 -24 59 15 c59 16 59 16 59 54 0 43 0 43 -82 20z"/>
 <path d="M1170 596 c0 -32 2 -34 68 -53 l67 -21 12 22 c24 42 17 53 -52 70 -91 23 -95 22 -95 -18z"/>
 </g>

</svg>